<?xml version="1.0" encoding="utf-8"?>
<!-- Generator: Adobe Illustrator 22.0.1, SVG Export Plug-In . SVG Version: 6.00 Build 0)  -->
<svg version="1.1" id="Livello_1" xmlns="http://www.w3.org/2000/svg" xmlns:xlink="http://www.w3.org/1999/xlink" x="0px" y="0px"
	 viewBox="0 0 307.6 51.1" style="enable-background:new 0 0 307.6 51.1;" xml:space="preserve">
<style type="text/css">
	.st0{clip-path:url(#SVGID_2_);fill:#045C8D;}
	.st1{clip-path:url(#SVGID_2_);fill:#4699D4;}
</style>
<g>
	<defs>
		<rect id="SVGID_1_" x="7" y="6.6" width="294.8" height="38.4"/>
	</defs>
	<clipPath id="SVGID_2_">
		<use xlink:href="#SVGID_1_"  style="overflow:visible;"/>
	</clipPath>
	<path class="st0" d="M92.6,18.4c1.1,0,2.1,0.2,2.9,0.5c0.8,0.3,1.5,0.7,2.1,1.2c0.6,0.5,1.1,1.2,1.6,2.1c0.5,0.9,0.7,1.9,0.7,3
		v11.5c-0.4,0.1-0.9,0.1-1.5,0.1c-0.6,0-1.1-0.1-1.6-0.1V26.5c0-0.7-0.1-1.5-0.3-2.3c-0.2-0.8-0.7-1.6-1.4-2.1
		c-0.7-0.6-1.7-0.9-3-0.9c-1.7,0-3.2,0.6-4.6,1.9c0.2,0.7,0.3,1.4,0.3,2.1v11.5c-0.4,0.1-0.9,0.1-1.5,0.1c-0.6,0-1.1-0.1-1.6-0.1
		V26.5c0-0.7-0.1-1.5-0.3-2.3c-0.2-0.8-0.7-1.6-1.4-2.1c-0.7-0.6-1.7-0.9-3-0.9c-0.7,0-1.5,0.1-2.3,0.3c-0.8,0.2-1.5,0.5-2,0.9v14.3
		c-0.4,0.1-0.9,0.1-1.6,0.1c-0.5,0-1-0.1-1.5-0.1V21.1c0.9-0.8,2-1.4,3.5-1.9c1.4-0.5,2.9-0.8,4.4-0.8c1.2,0,2.4,0.2,3.4,0.7
		c1,0.4,1.8,1.1,2.5,1.8c0.8-0.7,1.8-1.3,2.9-1.8C90.3,18.6,91.5,18.4,92.6,18.4"/>
	<path class="st0" d="M107.1,31.3c0,1,0.4,1.8,1.2,2.3c0.8,0.6,1.9,0.9,3.4,0.9c1.7,0,3.2-0.2,4.6-0.7v-4.4
		c-0.7-0.3-1.4-0.5-2.3-0.7c-0.9-0.2-1.8-0.3-2.6-0.3c-1.3,0-2.3,0.2-2.9,0.6c-0.6,0.4-1,0.8-1.1,1.3
		C107.2,30.8,107.1,31.1,107.1,31.3 M111.6,18.4c1.7,0,3.1,0.3,4.2,0.9c1.1,0.6,2,1.4,2.6,2.4c0.6,1,0.9,2.3,0.9,3.7v10.2
		c-0.9,0.5-2,0.9-3.5,1.2c-1.5,0.3-2.8,0.5-4.1,0.5c-1.6,0-3-0.2-4.1-0.7c-1.1-0.4-2-1.1-2.6-1.9c-0.6-0.8-0.9-1.9-0.9-3.2
		c0-1.1,0.3-2.1,0.9-3c0.6-0.9,1.5-1.6,2.7-2c1.2-0.4,2.4-0.7,3.7-0.7c0.9,0,1.8,0.1,2.7,0.3c0.9,0.2,1.7,0.4,2.3,0.6v-1.4
		c0-1.3-0.4-2.3-1.3-3c-0.9-0.7-2.1-1.1-3.6-1.1c-1,0-1.9,0.2-2.8,0.5c-0.9,0.3-1.6,0.7-2.3,1.2c-0.4-0.2-0.7-0.5-1-0.9
		c-0.3-0.4-0.5-0.8-0.5-1.2c0.6-0.6,1.6-1.2,2.8-1.7C108.8,18.6,110.2,18.4,111.6,18.4"/>
	<path class="st0" d="M135.4,19c0,0.4,0,0.9-0.2,1.4c-0.1,0.5-0.3,0.9-0.6,1.2c-0.9-0.3-2-0.4-3.3-0.4c-0.7,0-1.4,0.1-2.2,0.2
		c-0.7,0.2-1.3,0.4-1.7,0.7v14.6c-0.4,0.1-0.9,0.1-1.6,0.1c-0.6,0-1.1-0.1-1.6-0.1V20.8c0.8-0.7,1.8-1.2,3.2-1.7
		c1.3-0.5,2.7-0.7,4-0.7C132.9,18.4,134.2,18.6,135.4,19"/>
	<path class="st0" d="M140.3,36.9c-0.6,0-1.1-0.1-1.6-0.1V18.9c0.5-0.1,1-0.2,1.6-0.2c0.6,0,1.1,0.1,1.5,0.2v17.9
		C141.4,36.8,140.9,36.9,140.3,36.9"/>
	<path class="st0" d="M154.8,18.4c1.7,0,3.1,0.3,4.2,0.9c1.2,0.6,2.1,1.4,2.7,2.5c0.7,1.1,1,2.4,1,3.9v11.1
		c-0.4,0.1-0.9,0.1-1.6,0.1c-0.5,0-1-0.1-1.5-0.1v-10c0-1.9-0.4-3.3-1.3-4.2c-0.9-0.9-2.2-1.3-3.9-1.3c-0.9,0-1.8,0.1-2.6,0.4
		c-0.9,0.3-1.6,0.5-2.2,0.9v14.3c-0.4,0.1-0.9,0.1-1.6,0.1c-0.5,0-1-0.1-1.5-0.1V21.1c0.9-0.8,2.1-1.4,3.6-1.9
		C151.7,18.6,153.2,18.4,154.8,18.4"/>
	<path class="st0" d="M170.3,26.2h10.2c0-1-0.2-1.8-0.6-2.6c-0.4-0.8-0.9-1.4-1.6-1.8c-0.7-0.4-1.5-0.6-2.6-0.6
		c-1.5,0-2.7,0.5-3.7,1.5C171.1,23.5,170.5,24.7,170.3,26.2 M183.7,26.3c0,0.7-0.1,1.5-0.2,2.4h-13.2c0.1,1.7,0.7,3,1.8,4.1
		c1.1,1.1,2.4,1.6,4,1.6c0.3,0,0.7,0,1.4-0.1c0.6-0.1,1.3-0.2,1.9-0.5c0.6-0.3,1.3-0.7,2-1.2c0.4,0.2,0.7,0.5,1,0.9
		c0.3,0.4,0.5,0.8,0.6,1.2c-2,1.7-4.4,2.6-7,2.6c-1.3,0-2.5-0.2-3.6-0.7c-1.1-0.4-2-1.1-2.8-1.9c-0.8-0.8-1.4-1.8-1.8-3
		c-0.4-1.2-0.6-2.5-0.6-3.8c0-1.3,0.2-2.6,0.7-3.8c0.4-1.2,1.1-2.2,1.8-3c0.8-0.9,1.7-1.5,2.8-2c1.1-0.5,2.2-0.7,3.4-0.7
		c1.1,0,2.2,0.2,3.1,0.6c1,0.4,1.8,0.9,2.6,1.6c0.7,0.7,1.3,1.6,1.7,2.5C183.5,24.1,183.7,25.2,183.7,26.3"/>
	<path class="st1" d="M204.8,18.4c1,0,1.9,0.1,2.8,0.4c0.9,0.3,1.8,0.8,2.6,1.5c0.8,0.7,1.4,1.6,1.7,2.6c0.4,1,0.5,2,0.5,2.9v11
		c-0.4,0.1-0.9,0.1-1.6,0.1c-0.5,0-1-0.1-1.5-0.1v-9.9c0-3.7-1.7-5.5-5.2-5.5c-0.7,0-1.5,0.1-2.4,0.4c-0.9,0.3-1.7,0.6-2.3,0.9v14.1
		c-0.4,0.1-0.9,0.1-1.5,0.1c-0.6,0-1.1-0.1-1.6-0.1V11.9c0.5-0.1,1-0.2,1.6-0.2c0.6,0,1.1,0,1.5,0.2v7.9
		C201.2,18.8,202.9,18.4,204.8,18.4"/>
	<path class="st1" d="M219.7,31.3c0,1,0.4,1.8,1.2,2.3c0.8,0.6,1.9,0.9,3.4,0.9c1.7,0,3.2-0.2,4.6-0.7v-4.4
		c-0.7-0.3-1.4-0.5-2.3-0.7c-0.9-0.2-1.8-0.3-2.6-0.3c-1.3,0-2.3,0.2-2.9,0.6c-0.6,0.4-1,0.8-1.1,1.3
		C219.8,30.8,219.7,31.1,219.7,31.3 M224.1,18.4c1.7,0,3.1,0.3,4.2,0.9c1.1,0.6,2,1.4,2.6,2.4c0.6,1,0.9,2.3,0.9,3.7v10.2
		c-0.9,0.5-2,0.9-3.5,1.2c-1.5,0.3-2.8,0.5-4.1,0.5c-1.6,0-3-0.2-4.1-0.7c-1.1-0.4-2-1.1-2.6-1.9c-0.6-0.8-0.9-1.9-0.9-3.2
		c0-1.1,0.3-2.1,0.9-3c0.6-0.9,1.5-1.6,2.7-2c1.2-0.4,2.4-0.7,3.7-0.7c0.9,0,1.8,0.1,2.7,0.3c0.9,0.2,1.7,0.4,2.3,0.6v-1.4
		c0-1.3-0.4-2.3-1.3-3c-0.9-0.7-2.1-1.1-3.6-1.1c-1,0-1.9,0.2-2.8,0.5c-0.9,0.3-1.6,0.7-2.2,1.2c-0.4-0.2-0.7-0.5-1-0.9
		c-0.3-0.4-0.5-0.8-0.5-1.2c0.6-0.6,1.6-1.2,2.8-1.7C221.4,18.6,222.7,18.4,224.1,18.4"/>
	<path class="st1" d="M250.3,34.1c0.1,0.3,0.2,0.7,0.2,1.2s-0.1,0.9-0.2,1.3H236c-0.2-0.5-0.3-1-0.3-1.4c0-1,0.4-1.9,1.3-2.9
		l9.1-10.2l0.6-0.6H236c-0.1-0.6-0.2-1-0.2-1.3c0-0.3,0.1-0.7,0.2-1.3h13.7c0.1,0.4,0.2,0.8,0.2,1.2c0,0.5-0.1,1-0.3,1.6
		c-0.2,0.6-0.5,1.1-1,1.6l-9.1,10.4l-0.5,0.5H250.3z"/>
	<path class="st1" d="M256.3,31.3c0,1,0.4,1.8,1.2,2.3c0.8,0.6,1.9,0.9,3.4,0.9c1.7,0,3.2-0.2,4.6-0.7v-4.4
		c-0.7-0.3-1.4-0.5-2.3-0.7c-0.9-0.2-1.8-0.3-2.6-0.3c-1.3,0-2.3,0.2-2.9,0.6c-0.6,0.4-1,0.8-1.1,1.3
		C256.4,30.8,256.3,31.1,256.3,31.3 M260.7,18.4c1.7,0,3.1,0.3,4.2,0.9c1.1,0.6,2,1.4,2.6,2.4c0.6,1,0.9,2.3,0.9,3.7v10.2
		c-0.9,0.5-2,0.9-3.5,1.2c-1.5,0.3-2.8,0.5-4.1,0.5c-1.6,0-3-0.2-4.1-0.7c-1.1-0.4-2-1.1-2.6-1.9c-0.6-0.8-0.9-1.9-0.9-3.2
		c0-1.1,0.3-2.1,0.9-3c0.6-0.9,1.5-1.6,2.7-2c1.2-0.4,2.4-0.7,3.7-0.7c0.9,0,1.8,0.1,2.7,0.3c0.9,0.2,1.7,0.4,2.3,0.6v-1.4
		c0-1.3-0.4-2.3-1.3-3c-0.9-0.7-2.1-1.1-3.6-1.1c-1,0-1.9,0.2-2.8,0.5c-0.9,0.3-1.6,0.7-2.2,1.2c-0.4-0.2-0.7-0.5-1-0.9
		c-0.3-0.4-0.5-0.8-0.5-1.2c0.6-0.6,1.6-1.2,2.8-1.7C258,18.6,259.4,18.4,260.7,18.4"/>
	<path class="st1" d="M284.6,19c0,0.4,0,0.9-0.2,1.4c-0.1,0.5-0.3,0.9-0.6,1.2c-0.9-0.3-2-0.4-3.3-0.4c-0.7,0-1.5,0.1-2.2,0.2
		c-0.7,0.2-1.3,0.4-1.7,0.7v14.6c-0.4,0.1-0.9,0.1-1.6,0.1c-0.6,0-1.1-0.1-1.6-0.1V20.8c0.8-0.7,1.8-1.2,3.2-1.7
		c1.3-0.5,2.7-0.7,4-0.7C282.1,18.4,283.4,18.6,284.6,19"/>
	<path class="st1" d="M294.4,34.4c1.6,0,3.1-0.2,4.4-0.8V22.3c-1-0.7-2.5-1-4.3-1c-1.9,0-3.4,0.6-4.6,1.8c-1.2,1.2-1.8,2.8-1.8,4.8
		c0,2,0.6,3.6,1.7,4.8C291,33.9,292.5,34.4,294.4,34.4 M300.3,11.7c0.6,0,1.1,0.1,1.6,0.2v23.6c-0.9,0.5-2,0.9-3.4,1.3
		c-1.4,0.3-2.7,0.5-4,0.5c-1.3,0-2.5-0.2-3.7-0.6c-1.1-0.4-2.1-1-3-1.8c-0.8-0.8-1.5-1.8-2-3c-0.5-1.2-0.7-2.5-0.7-3.9
		c0-1.4,0.2-2.7,0.7-3.9c0.5-1.2,1.2-2.2,2.1-3s1.9-1.5,3.1-1.9c1.2-0.4,2.4-0.7,3.6-0.7c1.7,0,3.1,0.3,4.3,0.8v-7.4
		C299.2,11.8,299.7,11.7,300.3,11.7"/>
	<path class="st1" d="M56.1,38.5c0.2,3.3-2.5,6.2-5.8,6.2c-3.3,0-6-2.8-5.8-6.2c0-8.3-0.3-12.8-0.3-21.2c-0.1-4.1-2-8-5.2-10.7
		c4-0.1,8,1.1,11.2,3.5c3.5,2.6,5.6,6.7,5.6,11.1C55.9,28.2,56.1,31.5,56.1,38.5"/>
	<path class="st0" d="M37.5,38.5v1.1c-0.2,3.1-2.7,5.5-5.8,5.5c-3.1,0-5.6-2.4-5.8-5.5v-5.7c0-5.6-0.3-7.5-0.3-13.1
		c0-1.9-1.6-3.5-3.5-3.5c-1.9,0-3.5,1.6-3.5,3.5c-0.3-8.3,9.2-13.1,15.7-8l0,0c1.9,2.5,3,5.6,3,9C37.2,28.6,37.5,31.6,37.5,38.5"/>
	<path class="st1" d="M22.1,6.6c5,0,9.4,2.4,12.1,6.1c-6.5-5.1-16-0.2-15.7,8c0,7.2,0.3,10.6,0.3,17.7v1.1c-0.2,3.1-2.7,5.5-5.8,5.5
		c-3.1,0-5.6-2.4-5.8-5.5v-5.7C7.3,28.5,7,27,7,21.7C7,13.4,13.8,6.6,22.1,6.6"/>
</g>
</svg>
